<?xml version="1.0" encoding="UTF-8"?><svg id="Camada_1" xmlns="http://www.w3.org/2000/svg" xmlns:xlink="http://www.w3.org/1999/xlink" viewBox="0 0 24.39 23.59"><defs><filter id="luminosity-noclip-2" x="21.15" y="11.38" width="3.04" height="2.3" color-interpolation-filters="sRGB" filterUnits="userSpaceOnUse"><feFlood flood-color="#fff" result="bg"/><feBlend in="SourceGraphic" in2="bg"/></filter><filter id="luminosity-noclip-3" x="8203.69" y="-8204.02" width="-32766" height="32766" color-interpolation-filters="sRGB" filterUnits="userSpaceOnUse"><feFlood flood-color="#fff" result="bg"/><feBlend in="SourceGraphic" in2="bg"/></filter><mask id="mask-1" x="8203.69" y="-8204.02" width="-32766" height="32766" maskUnits="userSpaceOnUse"/><linearGradient id="linear-gradient" x1="23.29" y1="20.51" x2="21.94" y2="3.17" gradientUnits="userSpaceOnUse"><stop offset="0" stop-color="#fff"/><stop offset="1" stop-color="#000"/></linearGradient><mask id="mask" x="21.15" y="11.38" width="3.04" height="2.3" maskUnits="userSpaceOnUse"><g style="filter:url(#luminosity-noclip-2);"><g style="mask:url(#mask-1);"><path d="M21.33,11.38c0,.2,0,.28,0,.4,0,.64-.06,1.28-.19,1.89,.49-.23,.96-.46,1.44-.71,.55-.28,1.11-.57,1.6-.87v-.72h-2.86Z" style="fill:url(#linear-gradient); mix-blend-mode:multiply;"/></g></g></mask><linearGradient id="linear-gradient-2" x1="23.29" y1="20.51" x2="21.94" y2="3.17" gradientUnits="userSpaceOnUse"><stop offset="0" stop-color="#fff"/><stop offset="1" stop-color="#fff"/></linearGradient><filter id="luminosity-noclip-4" x=".18" y=".22" width="22.48" height="16.21" color-interpolation-filters="sRGB" filterUnits="userSpaceOnUse"><feFlood flood-color="#fff" result="bg"/><feBlend in="SourceGraphic" in2="bg"/></filter><filter id="luminosity-noclip-5" x="8203.69" y="-8204.02" width="-32766" height="32766" color-interpolation-filters="sRGB" filterUnits="userSpaceOnUse"><feFlood flood-color="#fff" result="bg"/><feBlend in="SourceGraphic" in2="bg"/></filter><mask id="mask-3" x="8203.69" y="-8204.02" width="-32766" height="32766" maskUnits="userSpaceOnUse"/><linearGradient id="linear-gradient-3" x1="12.3" y1="21.3" x2="10.96" y2="4.16" xlink:href="#linear-gradient"/><mask id="mask-2" x=".18" y=".22" width="22.48" height="16.21" maskUnits="userSpaceOnUse"><g style="filter:url(#luminosity-noclip-4);"><g style="mask:url(#mask-3);"><path d="M11.79,.22C5.39,.22,.18,5.4,.18,11.81c0,1.6,.33,3.12,.91,4.51,.78,.08,1.56,.11,2.35,.11-.76-1.37-1.2-2.95-1.2-4.62C2.24,6.54,6.52,2.28,11.79,2.28c3.67,0,7.05,2.05,8.63,5.48h2.24C20.96,3.15,16.62,.22,11.79,.22Z" style="fill:url(#linear-gradient-3); mix-blend-mode:multiply;"/></g></g></mask><linearGradient id="linear-gradient-4" x1="12.3" y1="21.3" x2="10.96" y2="4.16" xlink:href="#linear-gradient-2"/><filter id="luminosity-noclip-6" x="3.12" y="3.16" width="16.3" height="13.28" color-interpolation-filters="sRGB" filterUnits="userSpaceOnUse"><feFlood flood-color="#fff" result="bg"/><feBlend in="SourceGraphic" in2="bg"/></filter><filter id="luminosity-noclip-7" x="8203.69" y="-8204.02" width="-32766" height="32766" color-interpolation-filters="sRGB" filterUnits="userSpaceOnUse"><feFlood flood-color="#fff" result="bg"/><feBlend in="SourceGraphic" in2="bg"/></filter><mask id="mask-5" x="8203.69" y="-8204.02" width="-32766" height="32766" maskUnits="userSpaceOnUse"/><linearGradient id="linear-gradient-5" x1="12.11" y1="20.33" x2="10.86" y2="4.82" xlink:href="#linear-gradient"/><mask id="mask-4" x="3.12" y="3.16" width="16.3" height="13.28" maskUnits="userSpaceOnUse"><g style="filter:url(#luminosity-noclip-6);"><g style="mask:url(#mask-5);"><path d="M17.05,7.77h2.37c-.71-1.37-1.74-2.45-3.01-3.26-1.38-.88-2.98-1.36-4.63-1.36C7.01,3.16,3.12,7.04,3.12,11.82c0,1.7,.49,3.28,1.34,4.62,.83,0,1.67-.01,2.5-.02-1.14-1.2-1.84-2.81-1.84-4.59,0-3.68,2.99-6.65,6.67-6.65,2.07,0,3.99,.93,5.26,2.6Z" style="fill:url(#linear-gradient-5); mix-blend-mode:multiply;"/></g></g></mask><linearGradient id="linear-gradient-6" x1="12.11" y1="20.33" x2="10.86" y2="4.82" xlink:href="#linear-gradient-2"/><filter id="luminosity-noclip-8" x="14.82" y="11.4" width="5.63" height="3.72" color-interpolation-filters="sRGB" filterUnits="userSpaceOnUse"><feFlood flood-color="#fff" result="bg"/><feBlend in="SourceGraphic" in2="bg"/></filter><filter id="luminosity-noclip-9" x="8203.69" y="-8204.02" width="-32766" height="32766" color-interpolation-filters="sRGB" filterUnits="userSpaceOnUse"><feFlood flood-color="#fff" result="bg"/><feBlend in="SourceGraphic" in2="bg"/></filter><mask id="mask-7" x="8203.69" y="-8204.02" width="-32766" height="32766" maskUnits="userSpaceOnUse"/><linearGradient id="linear-gradient-7" x1="18.32" y1="19.86" x2="17.06" y2="4.23" xlink:href="#linear-gradient"/><mask id="mask-6" x="14.82" y="11.4" width="5.63" height="3.72" maskUnits="userSpaceOnUse"><g style="filter:url(#luminosity-noclip-8);"><g style="mask:url(#mask-7);"><path d="M20.45,11.4h-5.62l3.07,3.09-.05,.12c-.08,.17-.17,.34-.26,.51,.86-.28,1.71-.6,2.55-.96,.21-.76,.32-1.56,.32-2.36,0-.13,0-.21,0-.4Z" style="fill:url(#linear-gradient-7); mix-blend-mode:multiply;"/></g></g></mask><linearGradient id="linear-gradient-8" x1="18.32" y1="19.86" x2="17.06" y2="4.23" xlink:href="#linear-gradient-2"/></defs><path d="M23.57,11.29h-2.42c.01,.1,.02,.35,.02,.54,0,1.78-.49,3.43-1.35,4.84-1.64,2.71-4.62,4.51-8.02,4.51-5.18,0-9.37-4.2-9.37-9.38S6.61,2.42,11.79,2.42c3.77,0,7.03,2.2,8.51,5.44h2.61C21.29,3.25,16.93,0,11.79,0,5.28,0,0,5.28,0,11.8s5.28,11.79,11.79,11.79c4.06,0,7.64-2.06,9.76-5.19l2.84,2.85V11.29h-.82Z" style="fill:#fff;"/><path d="M20.62,11.29h-6.22l3.29,3.27c-1.03,2.22-3.28,3.75-5.9,3.75-3.59,0-6.49-2.91-6.49-6.5s2.91-6.51,6.49-6.51c2.11,0,3.99,.99,5.17,2.56h2.75c-1.45-2.84-4.45-4.91-7.93-4.91C6.91,2.95,2.95,6.91,2.95,11.8s3.96,8.85,8.84,8.85c3.25,0,6.1-1.76,7.63-4.38,.77-1.31,1.21-2.81,1.21-4.44,0-.19,0-.44-.02-.54Z" style="fill:#0f1e2f; stroke:#f18a54; stroke-miterlimit:10; stroke-width:.25px;"/><path d="M11.79,20.46c-4.78,0-8.67-3.89-8.67-8.67S7.01,3.13,11.79,3.13c1.64,0,3.25,.49,4.63,1.37,1.26,.8,2.3,1.88,3.01,3.26h-2.37c-1.27-1.67-3.19-2.6-5.26-2.6-3.68,0-6.67,2.98-6.67,6.66s2.99,6.66,6.67,6.66c2.59,0,4.97-1.52,6.06-3.87l.05-.13-3.07-3.09h5.62c0,.2,0,.28,0,.4,0,1.54-.41,3.06-1.19,4.38-.75,1.28-1.83,2.36-3.11,3.11-1.32,.77-2.83,1.19-4.37,1.19Z" style="fill:#009dbb;"/><g><g style="mask:url(#mask);"><path d="M21.33,11.38c0,.2,0,.28,0,.4,0,.64-.06,1.28-.19,1.89,.49-.23,.96-.46,1.44-.71,.55-.28,1.11-.57,1.6-.87v-.72h-2.86Z" style="fill:url(#linear-gradient-2);"/></g><g style="mask:url(#mask-2);"><path d="M11.79,.22C5.39,.22,.18,5.4,.18,11.81c0,1.6,.33,3.12,.91,4.51,.78,.08,1.56,.11,2.35,.11-.76-1.37-1.2-2.95-1.2-4.62C2.24,6.54,6.52,2.28,11.79,2.28c3.67,0,7.05,2.05,8.63,5.48h2.24C20.96,3.15,16.62,.22,11.79,.22Z" style="fill:url(#linear-gradient-4);"/></g></g><g><g style="mask:url(#mask-4);"><path d="M17.05,7.77h2.37c-.71-1.37-1.74-2.45-3.01-3.26-1.38-.88-2.98-1.36-4.63-1.36C7.01,3.16,3.12,7.04,3.12,11.82c0,1.7,.49,3.28,1.34,4.62,.83,0,1.67-.01,2.5-.02-1.14-1.2-1.84-2.81-1.84-4.59,0-3.68,2.99-6.65,6.67-6.65,2.07,0,3.99,.93,5.26,2.6Z" style="fill:url(#linear-gradient-6);"/></g><g style="mask:url(#mask-6);"><path d="M20.45,11.4h-5.62l3.07,3.09-.05,.12c-.08,.17-.17,.34-.26,.51,.86-.28,1.71-.6,2.55-.96,.21-.76,.32-1.56,.32-2.36,0-.13,0-.21,0-.4Z" style="fill:url(#linear-gradient-8);"/></g></g></svg>