<?xml version="1.0" encoding="UTF-8"?><svg id="Camada_1" xmlns="http://www.w3.org/2000/svg" xmlns:xlink="http://www.w3.org/1999/xlink" viewBox="0 0 108.43 50.64"><defs><filter id="luminosity-noclip-2" x="20.73" y="16.25" width="2.97" height="2.25" color-interpolation-filters="sRGB" filterUnits="userSpaceOnUse"><feFlood flood-color="#fff" result="bg"/><feBlend in="SourceGraphic" in2="bg"/></filter><filter id="luminosity-noclip-3" x="8246.34" y="-8212.69" width="-32766" height="32766" color-interpolation-filters="sRGB" filterUnits="userSpaceOnUse"><feFlood flood-color="#fff" result="bg"/><feBlend in="SourceGraphic" in2="bg"/></filter><mask id="mask-1" x="8246.34" y="-8212.69" width="-32766" height="32766" maskUnits="userSpaceOnUse"/><linearGradient id="linear-gradient" x1="22.82" y1="25.2" x2="21.5" y2="8.21" gradientUnits="userSpaceOnUse"><stop offset="0" stop-color="#fff"/><stop offset="1" stop-color="#000"/></linearGradient><mask id="mask" x="20.73" y="16.25" width="2.97" height="2.25" maskUnits="userSpaceOnUse"><g style="filter:url(#luminosity-noclip-2);"><g style="mask:url(#mask-1);"><path d="M20.9,16.25c0,.19,0,.27,0,.4,0,.62-.06,1.25-.18,1.86,.48-.22,.94-.45,1.41-.7,.54-.27,1.09-.56,1.57-.85v-.71h-2.8Z" style="fill:url(#linear-gradient); mix-blend-mode:multiply;"/></g></g></mask><linearGradient id="linear-gradient-2" x1="22.82" y1="25.2" x2="21.5" y2="8.21" gradientUnits="userSpaceOnUse"><stop offset="0" stop-color="#fff"/><stop offset="1" stop-color="#fff"/></linearGradient><filter id="luminosity-noclip-4" x=".17" y="5.31" width="22.03" height="15.89" color-interpolation-filters="sRGB" filterUnits="userSpaceOnUse"><feFlood flood-color="#fff" result="bg"/><feBlend in="SourceGraphic" in2="bg"/></filter><filter id="luminosity-noclip-5" x="8246.34" y="-8212.69" width="-32766" height="32766" color-interpolation-filters="sRGB" filterUnits="userSpaceOnUse"><feFlood flood-color="#fff" result="bg"/><feBlend in="SourceGraphic" in2="bg"/></filter><mask id="mask-3" x="8246.34" y="-8212.69" width="-32766" height="32766" maskUnits="userSpaceOnUse"/><linearGradient id="linear-gradient-3" x1="12.05" y1="25.97" x2="10.74" y2="9.17" xlink:href="#linear-gradient"/><mask id="mask-2" x=".17" y="5.31" width="22.03" height="15.89" maskUnits="userSpaceOnUse"><g style="filter:url(#luminosity-noclip-4);"><g style="mask:url(#mask-3);"><path d="M11.55,5.31C5.28,5.31,.17,10.39,.17,16.67c0,1.57,.32,3.06,.9,4.42,.76,.08,1.53,.11,2.3,.11-.75-1.34-1.17-2.89-1.17-4.53,0-5.16,4.2-9.34,9.36-9.34,3.6,0,6.9,2.01,8.45,5.37h2.2c-1.67-4.51-5.91-7.39-10.65-7.39Z" style="fill:url(#linear-gradient-3); mix-blend-mode:multiply;"/></g></g></mask><linearGradient id="linear-gradient-4" x1="12.05" y1="25.97" x2="10.74" y2="9.17" xlink:href="#linear-gradient-2"/><filter id="luminosity-noclip-6" x="3.06" y="8.19" width="15.97" height="13.02" color-interpolation-filters="sRGB" filterUnits="userSpaceOnUse"><feFlood flood-color="#fff" result="bg"/><feBlend in="SourceGraphic" in2="bg"/></filter><filter id="luminosity-noclip-7" x="8246.34" y="-8212.69" width="-32766" height="32766" color-interpolation-filters="sRGB" filterUnits="userSpaceOnUse"><feFlood flood-color="#fff" result="bg"/><feBlend in="SourceGraphic" in2="bg"/></filter><mask id="mask-5" x="8246.34" y="-8212.69" width="-32766" height="32766" maskUnits="userSpaceOnUse"/><linearGradient id="linear-gradient-5" x1="11.87" y1="25.02" x2="10.64" y2="9.82" xlink:href="#linear-gradient"/><mask id="mask-4" x="3.06" y="8.19" width="15.97" height="13.02" maskUnits="userSpaceOnUse"><g style="filter:url(#luminosity-noclip-6);"><g style="mask:url(#mask-5);"><path d="M16.71,12.72h2.33c-.69-1.34-1.71-2.41-2.95-3.19-1.35-.86-2.92-1.33-4.53-1.33-4.68,0-8.49,3.81-8.49,8.49,0,1.66,.48,3.22,1.31,4.53,.82,0,1.63-.01,2.45-.02-1.12-1.17-1.81-2.76-1.81-4.5,0-3.6,2.93-6.51,6.54-6.51,2.03,0,3.9,.91,5.15,2.55Z" style="fill:url(#linear-gradient-5); mix-blend-mode:multiply;"/></g></g></mask><linearGradient id="linear-gradient-6" x1="11.87" y1="25.02" x2="10.64" y2="9.82" xlink:href="#linear-gradient-2"/><filter id="luminosity-noclip-8" x="14.52" y="16.27" width="5.52" height="3.64" color-interpolation-filters="sRGB" filterUnits="userSpaceOnUse"><feFlood flood-color="#fff" result="bg"/><feBlend in="SourceGraphic" in2="bg"/></filter><filter id="luminosity-noclip-9" x="8246.34" y="-8212.69" width="-32766" height="32766" color-interpolation-filters="sRGB" filterUnits="userSpaceOnUse"><feFlood flood-color="#fff" result="bg"/><feBlend in="SourceGraphic" in2="bg"/></filter><mask id="mask-7" x="8246.34" y="-8212.69" width="-32766" height="32766" maskUnits="userSpaceOnUse"/><linearGradient id="linear-gradient-7" x1="17.95" y1="24.56" x2="16.71" y2="9.25" xlink:href="#linear-gradient"/><mask id="mask-6" x="14.52" y="16.27" width="5.52" height="3.64" maskUnits="userSpaceOnUse"><g style="filter:url(#luminosity-noclip-8);"><g style="mask:url(#mask-7);"><path d="M20.03,16.27h-5.51l3.01,3.03-.05,.12c-.08,.17-.16,.34-.25,.5,.85-.27,1.68-.59,2.5-.94,.21-.74,.32-1.53,.32-2.31,0-.12,0-.2,0-.39Z" style="fill:url(#linear-gradient-7); mix-blend-mode:multiply;"/></g></g></mask><linearGradient id="linear-gradient-8" x1="17.95" y1="24.56" x2="16.71" y2="9.25" xlink:href="#linear-gradient-2"/></defs><path d="M23.09,16.16h-2.37c.01,.1,.02,.34,.02,.53,0,1.74-.48,3.36-1.33,4.74-1.61,2.65-4.53,4.42-7.86,4.42-5.07,0-9.18-4.12-9.18-9.19S6.48,7.47,11.55,7.47c3.7,0,6.89,2.16,8.34,5.33h2.55c-1.58-4.51-5.86-7.7-10.9-7.7C5.17,5.1,0,10.28,0,16.66s5.17,11.55,11.55,11.55c3.98,0,7.48-2.01,9.56-5.08l2.78,2.79v-9.77h-.8Z" style="fill:#fff;"/><path d="M20.2,16.16h-6.09l3.22,3.2c-1.01,2.18-3.22,3.68-5.78,3.68-3.51,0-6.36-2.86-6.36-6.37s2.85-6.37,6.36-6.37c2.07,0,3.91,.97,5.07,2.5h2.7c-1.42-2.78-4.36-4.81-7.76-4.81-4.79,0-8.66,3.88-8.66,8.67s3.88,8.67,8.66,8.67c3.19,0,5.97-1.72,7.48-4.29,.75-1.28,1.19-2.75,1.19-4.35,0-.19,0-.43-.02-.53Z" style="fill:#0f1e2f; stroke:#f18a54; stroke-miterlimit:10; stroke-width:.25px;"/><path d="M11.55,25.15c-4.68,0-8.49-3.81-8.49-8.49s3.81-8.49,8.49-8.49c1.61,0,3.18,.48,4.53,1.34,1.24,.78,2.25,1.85,2.95,3.19h-2.33c-1.25-1.63-3.12-2.55-5.15-2.55-3.6,0-6.54,2.92-6.54,6.52s2.93,6.53,6.54,6.53c2.54,0,4.87-1.49,5.93-3.8l.05-.12-3.01-3.03h5.51c0,.19,0,.27,0,.39,0,1.51-.4,3-1.16,4.3-.74,1.26-1.79,2.31-3.05,3.05-1.29,.76-2.78,1.16-4.28,1.16Z" style="fill:#009dbb;"/><g><g style="mask:url(#mask);"><path d="M20.9,16.25c0,.19,0,.27,0,.4,0,.62-.06,1.25-.18,1.86,.48-.22,.94-.45,1.41-.7,.54-.27,1.09-.56,1.57-.85v-.71h-2.8Z" style="fill:url(#linear-gradient-2);"/></g><g style="mask:url(#mask-2);"><path d="M11.55,5.31C5.28,5.31,.17,10.39,.17,16.67c0,1.57,.32,3.06,.9,4.42,.76,.08,1.53,.11,2.3,.11-.75-1.34-1.17-2.89-1.17-4.53,0-5.16,4.2-9.34,9.36-9.34,3.6,0,6.9,2.01,8.45,5.37h2.2c-1.67-4.51-5.91-7.39-10.65-7.39Z" style="fill:url(#linear-gradient-4);"/></g></g><g><g style="mask:url(#mask-4);"><path d="M16.71,12.72h2.33c-.69-1.34-1.71-2.41-2.95-3.19-1.35-.86-2.92-1.33-4.53-1.33-4.68,0-8.49,3.81-8.49,8.49,0,1.66,.48,3.22,1.31,4.53,.82,0,1.63-.01,2.45-.02-1.12-1.17-1.81-2.76-1.81-4.5,0-3.6,2.93-6.51,6.54-6.51,2.03,0,3.9,.91,5.15,2.55Z" style="fill:url(#linear-gradient-6);"/></g><g style="mask:url(#mask-6);"><path d="M20.03,16.27h-5.51l3.01,3.03-.05,.12c-.08,.17-.16,.34-.25,.5,.85-.27,1.68-.59,2.5-.94,.21-.74,.32-1.53,.32-2.31,0-.12,0-.2,0-.39Z" style="fill:url(#linear-gradient-8);"/></g></g><text transform="translate(27.6 28.29) scale(1.02 1)" style="fill:#fff; font-family:BaiJamjuree-Bold, &apos;Bai Jamjuree&apos;; font-size:33.28px;"><tspan x="0" y="0">O UP</tspan></text><text transform="translate(.88 42.98)" style="fill:#fff; font-family:BaiJamjuree-Bold, &apos;Bai Jamjuree&apos;; font-size:13.66px;"><tspan x="0" y="0">CON</tspan><tspan x="29.09" y="0" style="letter-spacing:-.1em;">T</tspan><tspan x="36" y="0" style="letter-spacing:0em;">A</tspan><tspan x="45.22" y="0" style="letter-spacing:0em;">BILI</tspan><tspan x="70.38" y="0" style="letter-spacing:-.02em;">D</tspan><tspan x="79.75" y="0" style="letter-spacing:0em;">A</tspan><tspan x="88.97" y="0" style="letter-spacing:0em;">DE</tspan></text></svg>